<svg width="22" height="20" viewBox="0 0 22 20" fill="none" xmlns="http://www.w3.org/2000/svg">
<path fill-rule="evenodd" clip-rule="evenodd" d="M4.38111 3.83333C1.98792 3.83333 0.0478516 5.7734 0.0478516 8.16659V13.6905C0.0478516 16.7149 2.49963 19.1667 5.52404 19.1667H16.4764C19.5008 19.1667 21.9526 16.7149 21.9526 13.6905V8.16659C21.9526 5.7734 20.0126 3.83333 17.6194 3.83333C16.926 3.83333 16.2993 3.42012 16.0262 2.78281L15.687 1.99141C15.1693 0.783304 13.9814 0 12.667 0H11.0002H9.33349C8.01911 0 6.8312 0.783305 6.31344 1.99141L5.97427 2.78281C5.70113 3.42012 5.07448 3.83333 4.38111 3.83333ZM13.4645 10.4047C13.4645 9.04376 12.3612 7.94046 11.0003 7.94046C9.63927 7.94046 8.53597 9.04376 8.53597 10.4047C8.53597 11.7657 9.63927 12.869 11.0003 12.869C12.3612 12.869 13.4645 11.7657 13.4645 10.4047ZM11.0003 6.29761C13.2686 6.29761 15.1074 8.13644 15.1074 10.4047C15.1074 12.6731 13.2686 14.5119 11.0003 14.5119C8.73195 14.5119 6.89312 12.6731 6.89312 10.4047C6.89312 8.13644 8.73195 6.29761 11.0003 6.29761Z" fill="#222222"/>
</svg>
